<mxfile host="app.diagrams.net" agent="Mozilla/5.0 (X11; Linux x86_64; rv:130.0) Gecko/20100101 Firefox/130.0" version="24.7.7">
  <diagram name="Page-1" id="r3FC-EL5zHiGlmWh1S8w">
    <mxGraphModel dx="794" dy="689" grid="1" gridSize="10" guides="1" tooltips="1" connect="1" arrows="1" fold="1" page="1" pageScale="1" pageWidth="827" pageHeight="1169" math="0" shadow="0">
      <root>
        <mxCell id="0" />
        <mxCell id="1" parent="0" />
        <mxCell id="ClLj2boO89qtVn9danNA-1" value="G" style="ellipse;whiteSpace=wrap;html=1;aspect=fixed;" vertex="1" parent="1">
          <mxGeometry x="100" y="240" width="30" height="30" as="geometry" />
        </mxCell>
        <mxCell id="ClLj2boO89qtVn9danNA-2" value="1" style="ellipse;whiteSpace=wrap;html=1;aspect=fixed;" vertex="1" parent="1">
          <mxGeometry x="140" y="190" width="30" height="30" as="geometry" />
        </mxCell>
        <mxCell id="ClLj2boO89qtVn9danNA-3" value="2" style="ellipse;whiteSpace=wrap;html=1;aspect=fixed;" vertex="1" parent="1">
          <mxGeometry x="190" y="210" width="30" height="30" as="geometry" />
        </mxCell>
        <mxCell id="ClLj2boO89qtVn9danNA-4" value="4" style="ellipse;whiteSpace=wrap;html=1;aspect=fixed;" vertex="1" parent="1">
          <mxGeometry x="230" y="150" width="30" height="30" as="geometry" />
        </mxCell>
        <mxCell id="ClLj2boO89qtVn9danNA-5" value="5" style="ellipse;whiteSpace=wrap;html=1;aspect=fixed;" vertex="1" parent="1">
          <mxGeometry x="560" y="180" width="30" height="30" as="geometry" />
        </mxCell>
        <mxCell id="ClLj2boO89qtVn9danNA-6" value="3" style="ellipse;whiteSpace=wrap;html=1;aspect=fixed;" vertex="1" parent="1">
          <mxGeometry x="610" y="200" width="30" height="30" as="geometry" />
        </mxCell>
        <mxCell id="ClLj2boO89qtVn9danNA-7" value="D" style="ellipse;whiteSpace=wrap;html=1;aspect=fixed;" vertex="1" parent="1">
          <mxGeometry x="640" y="240" width="30" height="30" as="geometry" />
        </mxCell>
        <mxCell id="ClLj2boO89qtVn9danNA-8" value="F" style="ellipse;whiteSpace=wrap;html=1;aspect=fixed;" vertex="1" parent="1">
          <mxGeometry x="360" y="70" width="30" height="30" as="geometry" />
        </mxCell>
        <mxCell id="ClLj2boO89qtVn9danNA-9" value="" style="endArrow=none;html=1;rounded=0;exitX=1;exitY=0;exitDx=0;exitDy=0;entryX=0;entryY=1;entryDx=0;entryDy=0;" edge="1" parent="1" source="ClLj2boO89qtVn9danNA-1" target="ClLj2boO89qtVn9danNA-2">
          <mxGeometry width="50" height="50" relative="1" as="geometry">
            <mxPoint x="140" y="310" as="sourcePoint" />
            <mxPoint x="190" y="260" as="targetPoint" />
          </mxGeometry>
        </mxCell>
        <mxCell id="ClLj2boO89qtVn9danNA-10" value="" style="endArrow=none;html=1;rounded=0;exitX=0;exitY=0;exitDx=0;exitDy=0;entryX=1;entryY=0.5;entryDx=0;entryDy=0;" edge="1" parent="1" source="ClLj2boO89qtVn9danNA-3" target="ClLj2boO89qtVn9danNA-2">
          <mxGeometry width="50" height="50" relative="1" as="geometry">
            <mxPoint x="136" y="254" as="sourcePoint" />
            <mxPoint x="154" y="226" as="targetPoint" />
          </mxGeometry>
        </mxCell>
        <mxCell id="ClLj2boO89qtVn9danNA-11" value="" style="endArrow=none;html=1;rounded=0;exitX=0;exitY=1;exitDx=0;exitDy=0;entryX=1;entryY=0;entryDx=0;entryDy=0;" edge="1" parent="1" source="ClLj2boO89qtVn9danNA-4" target="ClLj2boO89qtVn9danNA-3">
          <mxGeometry width="50" height="50" relative="1" as="geometry">
            <mxPoint x="146" y="264" as="sourcePoint" />
            <mxPoint x="164" y="236" as="targetPoint" />
          </mxGeometry>
        </mxCell>
        <mxCell id="ClLj2boO89qtVn9danNA-12" value="" style="endArrow=none;html=1;rounded=0;exitX=1;exitY=1;exitDx=0;exitDy=0;entryX=0;entryY=0;entryDx=0;entryDy=0;" edge="1" parent="1" source="ClLj2boO89qtVn9danNA-6" target="ClLj2boO89qtVn9danNA-7">
          <mxGeometry width="50" height="50" relative="1" as="geometry">
            <mxPoint x="186" y="304" as="sourcePoint" />
            <mxPoint x="204" y="276" as="targetPoint" />
          </mxGeometry>
        </mxCell>
        <mxCell id="ClLj2boO89qtVn9danNA-13" value="" style="endArrow=none;html=1;rounded=0;exitX=1;exitY=0.5;exitDx=0;exitDy=0;entryX=0;entryY=0;entryDx=0;entryDy=0;" edge="1" parent="1" source="ClLj2boO89qtVn9danNA-5" target="ClLj2boO89qtVn9danNA-6">
          <mxGeometry width="50" height="50" relative="1" as="geometry">
            <mxPoint x="196" y="314" as="sourcePoint" />
            <mxPoint x="214" y="286" as="targetPoint" />
          </mxGeometry>
        </mxCell>
        <mxCell id="ClLj2boO89qtVn9danNA-14" value="6" style="ellipse;whiteSpace=wrap;html=1;aspect=fixed;" vertex="1" parent="1">
          <mxGeometry x="570" y="120" width="30" height="30" as="geometry" />
        </mxCell>
        <mxCell id="ClLj2boO89qtVn9danNA-15" value="7" style="ellipse;whiteSpace=wrap;html=1;aspect=fixed;" vertex="1" parent="1">
          <mxGeometry x="500" y="120" width="30" height="30" as="geometry" />
        </mxCell>
        <mxCell id="ClLj2boO89qtVn9danNA-16" value="" style="endArrow=none;html=1;rounded=0;exitX=0.5;exitY=0;exitDx=0;exitDy=0;entryX=0.5;entryY=1;entryDx=0;entryDy=0;" edge="1" parent="1" source="ClLj2boO89qtVn9danNA-5" target="ClLj2boO89qtVn9danNA-14">
          <mxGeometry width="50" height="50" relative="1" as="geometry">
            <mxPoint x="600" y="205" as="sourcePoint" />
            <mxPoint x="624" y="214" as="targetPoint" />
          </mxGeometry>
        </mxCell>
        <mxCell id="ClLj2boO89qtVn9danNA-17" value="" style="endArrow=none;html=1;rounded=0;exitX=0;exitY=0.5;exitDx=0;exitDy=0;entryX=1;entryY=0.5;entryDx=0;entryDy=0;" edge="1" parent="1" source="ClLj2boO89qtVn9danNA-14" target="ClLj2boO89qtVn9danNA-15">
          <mxGeometry width="50" height="50" relative="1" as="geometry">
            <mxPoint x="610" y="215" as="sourcePoint" />
            <mxPoint x="634" y="224" as="targetPoint" />
          </mxGeometry>
        </mxCell>
        <mxCell id="ClLj2boO89qtVn9danNA-19" value="" style="shape=flexArrow;endArrow=classic;html=1;rounded=0;" edge="1" parent="1">
          <mxGeometry width="50" height="50" relative="1" as="geometry">
            <mxPoint x="280" y="140" as="sourcePoint" />
            <mxPoint x="330" y="110" as="targetPoint" />
          </mxGeometry>
        </mxCell>
        <mxCell id="ClLj2boO89qtVn9danNA-21" value="" style="shape=flexArrow;endArrow=classic;html=1;rounded=0;" edge="1" parent="1">
          <mxGeometry width="50" height="50" relative="1" as="geometry">
            <mxPoint x="480" y="120" as="sourcePoint" />
            <mxPoint x="410" y="100" as="targetPoint" />
          </mxGeometry>
        </mxCell>
      </root>
    </mxGraphModel>
  </diagram>
</mxfile>
